<svg width="28" height="51" viewBox="0 0 28 51" fill="none" xmlns="http://www.w3.org/2000/svg">
<g clip-path="url(#clip0_534_225)">
<path d="M25.7253 0.956634C27.6249 1.73252 27.4822 3.49386 26.247 4.70674C19.2417 11.6005 12.3034 18.5612 5.34266 25.4996C5.20443 25.6378 5.0439 25.7493 4.79419 26.0793C4.96363 26.1774 5.16429 26.2442 5.29806 26.3736C12.339 33.3833 19.3666 40.393 26.3986 47.3938C27.0363 48.027 27.393 48.7226 27.1032 49.6234C26.6885 50.9076 25.1412 51.3713 24.0844 50.5375C23.9461 50.426 23.8168 50.3011 23.6875 50.1763C16.1293 42.6404 8.5666 35.1045 1.02176 27.5552C0.673954 27.2074 0.401947 26.7169 0.259254 26.2398C0.0898072 25.6735 0.308305 25.1161 0.714086 24.6657C0.843401 24.5186 0.981634 24.3803 1.11987 24.2466C8.55323 16.8355 15.9821 9.42448 23.4244 2.02236C23.8391 1.60766 24.3697 1.31336 24.8424 0.961089H25.7209L25.7253 0.956634Z" fill="#725743"/>
</g>
<defs>
<clipPath id="clip0_534_225">
<rect width="27" height="50" fill="white" transform="matrix(-1 0 0 -1 27.2061 50.9565)"/>
</clipPath>
</defs>
</svg>
