<svg width="28" height="51" viewBox="0 0 28 51" fill="none" xmlns="http://www.w3.org/2000/svg">
<g clip-path="url(#clip0_534_228)">
<path d="M2.2747 50.9565C0.375112 50.1806 0.517804 48.4192 1.75298 47.2063C8.75827 40.3126 15.6967 33.3519 22.6574 26.4135C22.7956 26.2753 22.9561 26.1638 23.2058 25.8338C23.0364 25.7357 22.8357 25.6688 22.702 25.5395C15.661 18.5298 8.63341 11.5201 1.60137 4.51928C0.963716 3.88608 0.606986 3.19046 0.896829 2.28972C1.31153 1.0055 2.85884 0.54175 3.91566 1.3756C4.05389 1.48708 4.1832 1.61194 4.31252 1.73679C11.8707 9.27269 19.4334 16.8086 26.9783 24.3579C27.3261 24.7057 27.5981 25.1962 27.7408 25.6733C27.9102 26.2396 27.6917 26.797 27.2859 27.2474C27.1566 27.3945 27.0184 27.5327 26.8802 27.6665C19.4468 35.0776 12.0179 42.4886 4.57561 49.8907C4.16091 50.3054 3.63027 50.5997 3.15761 50.952H2.27916L2.2747 50.9565Z" fill="#725743"/>
</g>
<defs>
<clipPath id="clip0_534_228">
<rect width="27" height="50" fill="white" transform="translate(0.793945 0.956543)"/>
</clipPath>
</defs>
</svg>
