<svg width="32" height="24" viewBox="0 0 32 24" fill="none" xmlns="http://www.w3.org/2000/svg">
<path d="M18.3141 0.126958C18.3141 1.63926 18.3073 3.1087 18.3277 4.5768C18.329 4.69333 18.5124 4.87685 18.6428 4.91167C21.1529 5.59214 23.1075 7.02407 24.5432 9.14853C25.2197 10.1491 25.6353 11.2489 25.7168 12.5469C24.6519 12.0338 23.5938 12.0499 22.5248 12.3031C20.2266 12.8456 18.6808 14.6418 18.3779 16.9485C17.9582 20.1486 19.9155 22.4056 22.1662 23.2227C25.073 24.2769 28.1835 23.3232 29.8949 20.8478C30.7167 19.6596 31.1785 18.3308 31.2709 16.915C31.5303 12.8978 30.7534 9.12174 28.265 5.83593C25.8431 2.63451 22.5819 0.757865 18.5844 0.128298C18.5192 0.117582 18.4513 0.128298 18.3127 0.128298L18.3141 0.126958Z" fill="#725743"/>
<path d="M0.976803 0.0839844C0.976803 1.64585 0.968654 3.13002 0.994461 4.61285C0.995819 4.72537 1.22945 4.88879 1.38293 4.93433C4.25574 5.78358 6.42223 7.48475 7.73298 10.1571C8.07799 10.859 8.21925 11.6587 8.38361 12.461C7.16114 11.9815 5.99572 12.0511 4.83981 12.3847C2.60812 13.0276 1.1561 14.9686 0.98631 17.3341C0.763549 20.4244 2.74395 22.506 4.89414 23.2521C7.69495 24.2246 10.6873 23.3512 12.3838 21.066C13.4066 19.6877 13.8929 18.1191 13.9513 16.434C14.1034 12.0364 13.0426 8.01386 9.95788 4.69456C7.5632 2.11467 4.57222 0.606392 0.976803 0.0839844Z" fill="#725743"/>
</svg>
