<svg width="45" height="35" viewBox="0 0 45 35" fill="none" xmlns="http://www.w3.org/2000/svg">
<path d="M19.3406 0.153377C19.3406 2.33554 19.3503 4.45585 19.3213 6.57423C19.3194 6.74239 19.0581 7.00718 18.8723 7.05744C15.2962 8.03931 12.5115 10.1055 10.4661 13.171C9.50239 14.6148 8.91023 16.2016 8.79413 18.0746C10.3113 17.3343 11.8188 17.3575 13.3417 17.7228C16.616 18.5056 18.8182 21.0975 19.2497 24.4258C19.8477 29.0433 17.0591 32.3002 13.8526 33.4792C9.71138 35.0003 5.27991 33.6241 2.84163 30.0523C1.67087 28.3379 1.01292 26.4205 0.881335 24.3775C0.511723 18.581 1.61862 13.1323 5.1638 8.39109C8.61416 3.77163 13.2604 1.06374 18.9556 0.15531C19.0484 0.139847 19.1452 0.15531 19.3426 0.15531L19.3406 0.153377Z" fill="#725743"/>
<path d="M44.0408 0.0913086C44.0408 2.34499 44.0524 4.48656 44.0157 6.6262C44.0137 6.78856 43.6809 7.02436 43.4622 7.09008C39.3694 8.31549 36.2829 10.7702 34.4154 14.6262C33.9239 15.639 33.7227 16.7929 33.4885 17.9506C35.2301 17.2587 36.8905 17.3592 38.5373 17.8405C41.7167 18.7682 43.7854 21.5689 44.0273 24.9823C44.3447 29.4413 41.5232 32.4449 38.4599 33.5215C34.4696 34.9247 30.2065 33.6645 27.7895 30.3671C26.3324 28.3782 25.6396 26.1149 25.5564 23.6834C25.3396 17.3379 26.851 11.5336 31.2457 6.7441C34.6573 3.02148 38.9185 0.845111 44.0408 0.0913086Z" fill="#725743"/>
</svg>
