<svg width="52" height="52" viewBox="0 0 52 52" fill="none" xmlns="http://www.w3.org/2000/svg">
<g clip-path="url(#clip0_511_480)">
<path d="M46.2894 14.1763C44.8325 14.824 43.494 15.4221 42.1528 16.0202C36.6116 18.4869 31.0649 20.9454 25.5292 23.426C24.8737 23.7209 24.3091 23.7043 23.6536 23.4094C17.0273 20.4411 10.39 17.4947 3.75543 14.5456C3.50757 14.4354 3.25144 14.3362 2.91544 14.1956V14.9067C2.91544 22.883 2.92095 30.8566 2.90442 38.8329C2.90442 39.2904 3.01734 39.5247 3.45799 39.7204C10.2991 42.7439 17.132 45.784 23.9621 48.835C24.3752 49.0197 24.7029 49.061 25.1243 48.8323C25.9147 48.3996 26.6804 48.6173 27.0136 49.2981C27.3524 49.9899 27.0274 50.6265 26.2618 51.1199C25.1822 51.8144 24.2155 51.7786 23.034 51.2412C15.8431 47.9751 8.61638 44.7862 1.39519 41.5891C0.684639 41.2694 0.36792 40.8091 0.36792 40.0236C0.38169 30.8318 0.378936 21.6427 0.36792 12.4509C0.36792 11.6902 0.684639 11.2355 1.36765 10.9323C8.82569 7.6249 16.2782 4.312 23.7225 0.982556C24.3367 0.70694 24.8765 0.712452 25.4879 0.985312C32.8991 4.29822 40.3131 7.6001 47.7353 10.8827C48.5147 11.2272 48.8452 11.7261 48.8397 12.5832C48.8149 16.5907 48.8287 20.5982 48.8287 24.6056C48.8287 24.7241 48.8314 24.8454 48.8259 24.9639C48.7791 25.7274 48.2393 26.24 47.5122 26.2207C46.8127 26.2014 46.3032 25.6971 46.2977 24.9391C46.2811 22.6074 46.2894 20.2729 46.2894 17.9412C46.2894 16.7285 46.2894 15.5158 46.2894 14.1735V14.1763ZM15.6338 17.0014C15.8073 17.0978 15.8844 17.1474 15.967 17.1833C18.7294 18.4125 21.4889 19.6473 24.2595 20.8517C24.4881 20.9509 24.8462 20.9068 25.0858 20.8021C31.3237 18.0432 37.5535 15.265 43.7859 12.4895C43.9539 12.4151 44.1164 12.3242 44.3505 12.2056C44.1715 12.1147 44.0889 12.0678 44.0008 12.0293C41.2577 10.8083 38.5174 9.57627 35.7633 8.38285C35.521 8.27811 35.1409 8.32773 34.882 8.44073C28.9883 11.0425 23.1028 13.6664 17.2174 16.2848C16.7161 16.508 16.2176 16.7368 15.6338 17.0014ZM32.2519 6.80081C29.7952 5.70662 27.468 4.68132 25.1519 3.62571C24.747 3.44105 24.4248 3.4631 24.0309 3.6395C18.4209 6.1476 12.8053 8.64193 7.18977 11.139C6.43791 11.4753 5.68604 11.817 4.83503 12.2001C5.11595 12.3379 5.28395 12.4261 5.46021 12.5033C7.60288 13.4597 9.75381 14.4023 11.8855 15.378C12.2903 15.5626 12.6043 15.5516 13.0009 15.3752C17.8288 13.2144 22.6622 11.0674 27.4956 8.9203C29.0351 8.23402 30.5746 7.54773 32.2519 6.80357V6.80081Z" fill="#725743"/>
<path d="M51.3679 39.0235C51.39 46.0048 45.6835 51.7542 38.7074 51.779C31.5936 51.8066 25.89 46.1013 25.8762 38.9463C25.8624 32.009 31.6515 26.2294 38.6028 26.2404C45.6642 26.2514 51.3431 31.9374 51.3679 39.0207V39.0235ZM38.5807 49.213C44.1247 49.2709 48.7653 44.737 48.8287 39.1971C48.8948 33.5084 44.3863 28.8588 38.7653 28.8174C33.0561 28.7761 28.465 33.2879 28.421 38.9821C28.3769 44.5771 32.9211 49.1524 38.5807 49.213Z" fill="#725743"/>
<path d="M37.3332 41.063C39.0407 39.3542 40.6683 37.7198 42.2988 36.0909C42.5108 35.8787 42.7146 35.6582 42.9487 35.4763C43.4665 35.0739 44.1192 35.1125 44.5846 35.5452C45.0611 35.9917 45.1272 36.6807 44.7361 37.2265C44.6205 37.3863 44.4745 37.5269 44.334 37.6674C42.4089 39.5968 40.4811 41.5261 38.5532 43.4554C37.6636 44.3429 37.0495 44.3484 36.1737 43.4719C35.2015 42.5018 34.2238 41.5371 33.2681 40.5504C32.8385 40.1067 32.7807 39.492 33.0561 39.0097C33.3287 38.5329 33.8851 38.2655 34.4331 38.4282C34.7223 38.5136 35.0032 38.7093 35.2235 38.9215C35.9231 39.5968 36.5923 40.3051 37.3332 41.063Z" fill="#725743"/>
</g>
<defs>
<clipPath id="clip0_511_480">
<rect width="51" height="51" fill="white" transform="translate(0.36792 0.778992)"/>
</clipPath>
</defs>
</svg>
