<svg width="31" height="36" viewBox="0 0 31 36" fill="none" xmlns="http://www.w3.org/2000/svg">
<path fill-rule="evenodd" clip-rule="evenodd" d="M8.23351 8.36968C8.23351 6.38056 9.02369 4.47291 10.4302 3.06639C11.8367 1.65987 13.7444 0.86969 15.7335 0.86969C17.7226 0.86969 19.6303 1.65987 21.0368 3.06639C22.4433 4.47291 23.2335 6.38056 23.2335 8.36968C25.7335 8.36968 28.2335 8.37579 30.7335 8.37579V35.8696H0.733521V8.37579C3.23348 8.37579 5.73352 8.36968 8.23351 8.36968ZM23.2335 10.8697H28.2335V33.3697H3.23352V10.8697H8.23351V15.9078H10.7331L10.7335 10.8697H20.7335V15.8697H20.7362V15.9078H23.2358L23.2335 10.8697ZM20.7335 8.36968C20.7335 7.0436 20.2067 5.77183 19.269 4.83415C18.3314 3.89647 17.0596 3.36969 15.7335 3.36969C14.4074 3.36969 13.1357 3.89647 12.198 4.83415C11.2603 5.77183 10.7335 7.0436 10.7335 8.36968H20.7335Z" fill="#725743"/>
</svg>
