<svg width="56" height="37" viewBox="0 0 56 37" fill="none" xmlns="http://www.w3.org/2000/svg">
<path d="M27.5659 0.737072C34.4362 0.737072 41.3065 0.727878 48.1768 0.741669C51.4449 0.748564 54.0848 2.75048 54.833 5.78208C54.9741 6.35209 55.0212 6.95657 55.0235 7.54496C55.0353 15.0079 55.0377 22.4731 55.0282 29.9361C55.0235 33.8618 52.1084 36.7233 48.085 36.7256C34.3844 36.7371 20.6838 36.7371 6.98324 36.7256C2.95988 36.7233 0.0447118 33.8618 0.0400061 29.9338C0.0353005 22.4525 0.0329476 14.9688 0.042359 7.4852C0.0494175 3.5871 2.96223 0.746265 6.955 0.741669C13.8253 0.730177 20.6956 0.73937 27.5659 0.73937V0.737072ZM51.899 13.5093H3.17399C3.16223 13.7415 3.1434 13.9529 3.1434 14.1644C3.1434 19.3519 3.1387 24.5394 3.1434 29.7246C3.1434 32.2483 4.59511 33.671 7.16441 33.671C20.7427 33.671 34.3209 33.648 47.8991 33.6963C50.0685 33.7032 51.9743 32.2644 51.946 29.7315C51.8872 24.5463 51.9296 19.3588 51.9272 14.1713C51.9272 13.9598 51.9084 13.7461 51.899 13.5093ZM51.8613 10.4318C51.8613 9.13316 51.9672 7.89892 51.8354 6.68995C51.6402 4.89949 50.0214 3.77097 47.8709 3.77097C34.3138 3.77097 20.7568 3.77097 7.1997 3.77097C6.93618 3.77097 6.67266 3.78017 6.4115 3.80545C4.93627 3.95025 3.61868 4.88111 3.35045 6.29233C3.09635 7.6323 3.15046 9.02744 3.06811 10.4318H51.8613Z" fill="#725743"/>
</svg>
