<svg width="44" height="44" viewBox="0 0 44 44" fill="none" xmlns="http://www.w3.org/2000/svg">
<g clip-path="url(#clip0_511_469)">
<path d="M8.89115 8.83842C10.4057 8.83842 11.9203 8.83842 13.4349 8.83842C13.623 8.83842 13.816 8.83842 14.0017 8.86812C14.7194 8.98442 15.1821 9.57336 15.1376 10.291C15.0955 10.9665 14.5436 11.5084 13.8383 11.5208C12.7444 11.5381 11.6506 11.5282 10.5567 11.5282C9.00994 11.5282 7.46565 11.5282 5.91889 11.5282C4.93391 11.5282 4.3944 11.0012 4.39193 10.0237C4.38698 7.44279 4.38698 4.86432 4.39193 2.28338C4.3944 1.39255 4.97103 0.768966 5.75308 0.778864C6.54007 0.788762 7.08206 1.4074 7.08206 2.30565C7.08206 3.73346 7.08206 5.16127 7.08206 6.69053C7.24292 6.55443 7.34439 6.47029 7.44338 6.38121C12.1158 2.20914 17.5901 0.34582 23.8168 0.877845C33.4933 1.70681 41.4276 9.08588 43.061 18.6648C45.0359 30.2531 37.2625 41.3612 25.7323 43.4324C14.2343 45.4962 3.23619 38.0998 0.825711 26.6402C0.541106 25.2792 0.476761 23.8688 0.372818 22.4756C0.305998 21.5724 0.882631 20.9612 1.682 20.9463C2.50859 20.9315 3.04315 21.5204 3.058 22.4632C3.19411 30.6811 8.39124 37.6866 16.2389 40.223C25.7991 43.3136 36.421 37.9687 39.6358 28.4491C43.0387 18.3753 37.8119 7.68777 27.6627 4.42138C20.8099 2.21409 14.5783 3.68644 9.15348 8.44497C9.04706 8.53901 8.92332 8.61324 8.80701 8.69738L8.88867 8.83595L8.89115 8.83842Z" fill="#725743"/>
<path d="M23.2059 29.0357C23.2059 29.4539 23.2133 29.8597 23.2059 30.2655C23.191 31.0995 22.6317 31.6834 21.8645 31.6785C21.0973 31.6736 20.5504 31.092 20.5355 30.2507C20.5281 29.8597 20.5355 29.4687 20.5355 29.0035C20.0901 29.0035 19.6743 29.0035 19.261 29.0035C18.7957 29.0035 18.328 29.0159 17.8627 28.9986C17.0683 28.9714 16.4991 28.3923 16.5065 27.6351C16.5139 26.8804 17.0906 26.3112 17.8924 26.3063C19.657 26.2964 21.419 26.3112 23.1836 26.2989C24.2428 26.2914 24.8863 25.2323 24.3913 24.3291C24.1116 23.8169 23.6489 23.6115 23.0846 23.609C22.1961 23.6041 21.3052 23.6239 20.4167 23.6016C18.4641 23.5521 16.806 22.0872 16.5436 20.209C16.2665 18.222 17.3975 16.371 19.2808 15.7648C19.6644 15.641 20.0727 15.594 20.5331 15.4975C20.5331 15.1189 20.5281 14.7156 20.5331 14.3147C20.5454 13.4733 21.0874 12.8869 21.8521 12.8795C22.6342 12.8696 23.191 13.4659 23.2034 14.3295C23.2083 14.7205 23.2034 15.109 23.2034 15.5569C24.1017 15.5569 24.958 15.5495 25.8118 15.5569C26.5741 15.5643 27.1408 16.0444 27.22 16.7249C27.319 17.5786 26.7226 18.2442 25.8217 18.2492C24.072 18.2591 22.3223 18.2442 20.5726 18.2541C19.5258 18.2591 18.8749 19.2613 19.3154 20.1645C19.5901 20.7262 20.0752 20.9415 20.6741 20.9415C21.5477 20.9415 22.4238 20.9266 23.2974 20.9489C25.307 20.9959 27.0097 22.5351 27.2027 24.4529C27.4155 26.581 26.1286 28.4245 24.0968 28.8922C23.8147 28.9565 23.5251 28.9837 23.2009 29.0332L23.2059 29.0357Z" fill="#725743"/>
</g>
<defs>
<clipPath id="clip0_511_469">
<rect width="43" height="43" fill="white" transform="translate(0.368164 0.778992)"/>
</clipPath>
</defs>
</svg>
