<svg width="29" height="28" viewBox="0 0 29 28" fill="none" xmlns="http://www.w3.org/2000/svg">
<g clip-path="url(#clip0_529_743)">
<path d="M6.09238 5.9798H6.53326C12.8606 5.9798 19.1895 5.9798 25.5169 5.9798C26.7075 5.9798 27.6531 6.59166 27.9402 7.64015C28.0591 8.07824 28.0548 8.57912 27.9895 9.03473C27.5429 12.132 27.0788 15.2264 26.5929 18.3163C26.271 20.3637 24.8121 21.6414 22.744 21.6516C18.4006 21.6736 14.0571 21.6575 9.71218 21.659C7.55277 21.659 6.08948 20.0775 5.83859 18.2959C5.34116 14.7605 4.77122 11.2368 4.24333 7.70586C4.06205 6.4909 3.92863 5.26864 3.7517 4.05221C3.62408 3.17604 2.94247 2.59338 2.06652 2.57294C1.72282 2.56564 1.37766 2.57732 1.0325 2.56856C0.452409 2.55687 0.00573584 2.11733 -6.51154e-05 1.56095C-0.00586607 1.00312 0.432106 0.547513 1.018 0.541671C1.81853 0.53291 2.62922 0.462816 3.39929 0.776778C4.92639 1.40032 5.71097 2.56564 5.8705 4.19386C5.92851 4.77798 6.01407 5.35771 6.09093 5.97834L6.09238 5.9798ZM6.38243 8.02421C6.45929 8.53531 6.52601 8.9807 6.59417 9.42609C7.02199 12.2386 7.45706 15.0497 7.87328 17.8637C8.04875 19.0523 8.6535 19.6102 9.8398 19.6102C12.5749 19.6102 15.3101 19.6102 18.0452 19.6102C19.6217 19.6102 21.1981 19.6145 22.7745 19.6087C23.7099 19.6043 24.3842 19.0217 24.5365 18.1002C24.5858 17.7994 24.6264 17.4986 24.6714 17.1963C25.1021 14.3633 25.5299 11.5289 25.9635 8.69594C26.0506 8.13081 25.9679 8.02275 25.3907 8.02275C19.1793 8.02275 12.9665 8.02275 6.75514 8.02275H6.38243V8.02421Z" fill="white"/>
<path d="M9.31493 27.4416C8.5463 27.4402 7.9343 26.8312 7.9401 26.0733C7.94591 25.3359 8.56081 24.727 9.30768 24.7211C10.0662 24.7153 10.6956 25.3301 10.697 26.0821C10.6985 26.84 10.0865 27.4431 9.31493 27.4416Z" fill="white"/>
<path d="M23.1197 27.4417C22.3525 27.4417 21.7318 26.824 21.7391 26.0748C21.7463 25.3403 22.367 24.7284 23.1096 24.7211C23.8738 24.7138 24.4931 25.3228 24.496 26.0807C24.4974 26.8444 23.8927 27.4431 23.1197 27.4417Z" fill="white"/>
</g>
<defs>
<clipPath id="clip0_529_743">
<rect width="28.0346" height="26.9132" fill="white" transform="translate(0 0.528473)"/>
</clipPath>
</defs>
</svg>
