<svg width="34" height="32" viewBox="0 0 34 32" fill="none" xmlns="http://www.w3.org/2000/svg">
<g clip-path="url(#clip0_534_253)">
<path d="M0.819153 10.0589C0.92335 9.46333 0.982023 8.85444 1.13984 8.27416C2.112 4.69237 4.25157 2.17203 7.86305 1.20252C11.0284 0.353553 13.8731 1.14531 16.3111 3.36937C16.6611 3.68812 16.997 4.02321 17.3652 4.37464C17.4856 4.24694 17.6322 4.09472 17.7759 3.93841C19.3176 2.26296 21.1992 1.22193 23.4531 0.960395C26.1349 0.649823 28.5415 1.38845 30.5334 3.22941C33.0149 5.52294 34.0761 8.42332 33.7665 11.8039C33.5551 14.1188 32.6072 16.1202 31.0301 17.8048C26.8167 22.3081 22.5912 26.8002 18.3697 31.2963C17.6535 32.0585 17.001 32.0585 16.2868 31.2963C12.0653 26.8002 7.83877 22.3092 3.62538 17.8059C2.04018 16.1141 1.11859 14.0994 0.876815 11.7753C0.866699 11.6792 0.839385 11.5863 0.819153 11.4912C0.819153 11.0141 0.819153 10.536 0.819153 10.0589ZM17.3237 28.9333C17.3884 28.872 17.4208 28.8445 17.4502 28.8128C21.4349 24.568 25.4237 20.3262 29.3994 16.0732C29.7798 15.6666 30.1298 15.212 30.41 14.7298C32.1318 11.765 31.8232 8.30788 29.629 5.67517C27.2881 2.86674 23.1587 2.44685 20.3525 4.77818C19.61 5.39524 18.9777 6.14715 18.3009 6.8439C17.6838 7.47934 16.9737 7.4865 16.3637 6.84798C15.8265 6.28609 15.3187 5.69253 14.7532 5.16027C12.9596 3.47256 10.8453 2.90351 8.468 3.48992C5.41291 4.24388 3.43722 7.14323 3.20657 10.06C3.01639 12.4669 3.79331 14.5316 5.43921 16.2796C9.08205 20.1495 12.7148 24.0285 16.3515 27.9035C16.6682 28.2407 16.9868 28.5758 17.3227 28.9313L17.3237 28.9333Z" fill="#725743"/>
</g>
<defs>
<clipPath id="clip0_534_253">
<rect width="33" height="31" fill="white" transform="translate(0.819153 0.869659)"/>
</clipPath>
</defs>
</svg>
