<svg width="16" height="17" viewBox="0 0 16 17" fill="none" xmlns="http://www.w3.org/2000/svg">
<path d="M8 6.2098C6.52724 6.2098 5.33333 7.40371 5.33333 8.87646C5.33333 10.3492 6.52724 11.5431 8 11.5431C9.47276 11.5431 10.6667 10.3492 10.6667 8.87646C10.6667 7.40371 9.47276 6.2098 8 6.2098Z" fill="white"/>
<path fill-rule="evenodd" clip-rule="evenodd" d="M4.8 0.876465C2.14903 0.876465 0 3.0255 0 5.67647V12.0765C0 14.7274 2.14903 16.8765 4.8 16.8765H11.2C13.851 16.8765 16 14.7274 16 12.0765V5.67647C16 3.0255 13.851 0.876465 11.2 0.876465H4.8ZM4.26667 8.87646C4.26667 6.8146 5.93814 5.14313 8 5.14313C10.0619 5.14313 11.7333 6.8146 11.7333 8.87646C11.7333 10.9383 10.0619 12.6098 8 12.6098C5.93814 12.6098 4.26667 10.9383 4.26667 8.87646ZM11.7333 5.14313H12.8V4.07647H11.7333V5.14313Z" fill="white"/>
</svg>
