<svg width="208" height="53" viewBox="0 0 208 53" fill="none" xmlns="http://www.w3.org/2000/svg">
<g clip-path="url(#clip0_610_1243)">
<path d="M10.4549 46.3652C10.3714 46.3652 10.288 46.3559 10.203 46.3355C5.41789 45.1753 3.04154 42.1371 1.89045 39.7931C0.654376 37.2725 0.544674 35.0224 0.540039 34.9285C0.540039 34.9129 0.540039 34.8973 0.540039 34.8816V11.4296C0.540039 10.8292 1.02056 10.3413 1.61542 10.3413C2.21028 10.3413 2.6908 10.8276 2.6908 11.4296V34.8503C2.70316 35.0442 2.8484 36.8878 3.85426 38.8971C5.23711 41.6617 7.54238 43.4521 10.7052 44.2183C11.283 44.3591 11.6384 44.9454 11.5009 45.5302C11.3835 46.0291 10.9416 46.3652 10.4564 46.3652H10.4549Z" fill="white"/>
<path d="M22.9964 46.0638C16.4096 46.0638 11.0513 40.5596 11.0513 33.7936V22.9745C11.0513 22.3741 11.5318 21.8862 12.1267 21.8862C12.7215 21.8862 13.202 22.3725 13.202 22.9745V33.7936C13.202 39.3587 17.5963 43.8871 22.9964 43.8871C28.3964 43.8871 32.7907 39.3587 32.7907 33.7936V22.9745C32.7907 22.3741 33.2712 21.8862 33.8661 21.8862C34.4609 21.8862 34.9414 22.3725 34.9414 22.9745V33.7936C34.9414 40.5596 29.5831 46.0638 22.9964 46.0638Z" fill="white"/>
<path d="M49.3942 46.3652C49.3108 46.3652 49.2273 46.3559 49.1424 46.3355C44.3572 45.1753 41.9809 42.1371 40.8298 39.7931C39.5937 37.274 39.484 35.0239 39.4794 34.9285C39.4794 34.9129 39.4794 34.8973 39.4794 34.8816V11.4296C39.4794 10.8292 39.9599 10.3413 40.5548 10.3413C41.1496 10.3413 41.6301 10.8276 41.6301 11.4296V34.8503C41.6425 35.0442 41.7877 36.8878 42.7936 38.8971C44.1764 41.6617 46.4817 43.4521 49.6445 44.2183C50.2224 44.3591 50.5777 44.9454 50.4402 45.5302C50.3228 46.0291 49.8809 46.3652 49.3958 46.3652H49.3942Z" fill="white"/>
<path d="M61.9944 46.0638C55.4417 46.0638 50.1096 40.5596 50.1096 33.7936V22.9745C50.1096 22.3741 50.5901 21.8862 51.185 21.8862C51.7799 21.8862 52.2604 22.3725 52.2604 22.9745V33.7936C52.2604 39.3587 56.6268 43.8871 61.9944 43.8871C67.3621 43.8871 71.7285 39.3587 71.7285 33.7936V27.3263C71.7285 26.7258 72.209 26.2379 72.8039 26.2379C73.3987 26.2379 73.8793 26.7242 73.8793 27.3263V33.7936C73.8793 40.5596 68.5472 46.0638 61.9944 46.0638Z" fill="white"/>
<path d="M97.1451 52.8765C97.1451 52.8765 100.442 43.2536 90.1567 36.4923C77.6075 28.2439 65.3148 22.0736 65.6686 9.51108C65.8432 3.27514 67.722 0.876465 67.722 0.876465C67.722 0.876465 64.2023 12.8245 79.6115 19.7031C93.6023 25.9484 104.248 32.0421 104.248 41.0582C104.248 50.0744 97.1451 52.8765 97.1451 52.8765Z" fill="white"/>
<path d="M112.879 45.9417C110.527 45.9417 108.248 45.2568 106.287 43.9605C105.79 43.6321 105.651 42.9582 105.975 42.4547C106.3 41.9512 106.966 41.8105 107.463 42.1388C109.073 43.2037 110.946 43.7666 112.879 43.7666C118.345 43.7666 122.792 39.2664 122.792 33.7341C122.792 28.2018 118.345 23.7015 112.879 23.7015C108.885 23.7015 105.299 26.1065 103.744 29.8296C103.512 30.3831 102.882 30.6411 102.335 30.4081C101.788 30.1736 101.533 29.5356 101.763 28.9821C103.656 24.4521 108.019 21.5249 112.879 21.5249C119.53 21.5249 124.943 27.0025 124.943 33.7341C124.943 40.4657 119.53 45.9432 112.879 45.9432V45.9417Z" fill="white"/>
<path d="M138.858 46.1228C132.305 46.1228 126.973 40.6187 126.973 33.8527V23.0336C126.973 22.4332 127.454 21.9453 128.049 21.9453C128.643 21.9453 129.124 22.4316 129.124 23.0336V33.8527C129.124 39.4178 133.49 43.9462 138.858 43.9462C144.226 43.9462 148.592 39.4178 148.592 33.8527V23.215C148.592 22.6146 149.073 22.1267 149.667 22.1267C150.262 22.1267 150.743 22.613 150.743 23.215V33.8527C150.743 40.6187 145.411 46.1228 138.858 46.1228Z" fill="white"/>
<path d="M176.893 23.1168C176.824 23.6657 176.337 24.0629 175.79 24.0629H167.488C166.685 24.0629 166.033 24.7227 166.033 25.5358V44.4454C166.033 45.0411 165.58 45.5603 164.993 45.579C164.384 45.5978 163.884 45.1052 163.884 44.4923V25.5358C163.884 24.7227 163.232 24.0629 162.428 24.0629H154.247C153.7 24.0629 153.213 23.6657 153.144 23.1168C153.06 22.4523 153.57 21.8862 154.21 21.8862H175.829C176.469 21.8862 176.978 22.4538 176.895 23.1168H176.893Z" fill="white"/>
<path d="M186.397 45.5786C179.976 45.5786 174.752 40.2919 174.752 33.7932C174.752 27.2946 179.976 22.0078 186.397 22.0078C192.819 22.0078 198.043 27.2946 198.043 33.7932C198.043 40.2919 192.819 45.5786 186.397 45.5786ZM186.397 24.1829C181.161 24.1829 176.901 28.4939 176.901 33.7932C176.901 39.0925 181.161 43.4036 186.397 43.4036C191.634 43.4036 195.893 39.0925 195.893 33.7932C195.893 28.4939 191.634 24.1829 186.397 24.1829Z" fill="white"/>
<path d="M204.195 29.0788C202.154 29.0788 200.492 27.3978 200.492 25.3306C200.492 23.2635 202.153 21.5825 204.195 21.5825C206.238 21.5825 207.899 23.2635 207.899 25.3306C207.899 27.3978 206.238 29.0788 204.195 29.0788ZM204.195 22.1892C202.483 22.1892 201.09 23.5997 201.09 25.3322C201.09 27.0648 202.483 28.4752 204.195 28.4752C205.907 28.4752 207.301 27.0648 207.301 25.3322C207.301 23.5997 205.907 22.1892 204.195 22.1892Z" fill="white"/>
<path d="M202.925 23.5591H204.56C204.829 23.5591 205.051 23.5997 205.226 23.681C205.558 23.8359 205.723 24.1236 205.723 24.5411C205.723 24.7584 205.678 24.9382 205.59 25.0758C205.501 25.215 205.377 25.326 205.216 25.4105C205.357 25.4683 205.462 25.5449 205.533 25.6388C205.604 25.7326 205.644 25.8858 205.652 26.0969L205.669 26.5848C205.674 26.724 205.686 26.8272 205.703 26.8944C205.733 27.0101 205.785 27.0836 205.859 27.118V27.1993H205.261C205.244 27.168 205.232 27.1274 205.223 27.0773C205.213 27.0273 205.204 26.9319 205.198 26.7896L205.169 26.1829C205.158 25.9452 205.073 25.7858 204.914 25.7044C204.822 25.6591 204.682 25.6372 204.487 25.6372H203.409V27.1993H202.922V23.5591H202.925ZM204.507 25.2275C204.73 25.2275 204.906 25.1806 205.034 25.0884C205.164 24.9961 205.229 24.8288 205.229 24.588C205.229 24.3284 205.138 24.1517 204.957 24.0579C204.86 24.0079 204.731 23.9828 204.569 23.9828H203.412V25.2275H204.507Z" fill="white"/>
</g>
<defs>
<clipPath id="clip0_610_1243">
<rect width="207.357" height="52" fill="white" transform="translate(0.540039 0.876465)"/>
</clipPath>
</defs>
</svg>
