<svg width="210" height="52" viewBox="0 0 210 52" fill="none" xmlns="http://www.w3.org/2000/svg">
<g clip-path="url(#clip0_529_230)">
<path d="M10.7269 45.4889C10.6428 45.4889 10.5587 45.4795 10.4731 45.4592C5.65001 44.2989 3.25484 41.2607 2.09463 38.9167C0.848763 36.3961 0.738192 34.146 0.733521 34.0522C0.733521 34.0365 0.733521 34.0209 0.733521 34.0052V10.5533C0.733521 9.9528 1.21785 9.46494 1.81742 9.46494C2.41699 9.46494 2.90132 9.95124 2.90132 10.5533V33.974C2.91378 34.1679 3.06017 36.0114 4.07399 38.0208C5.46781 40.7853 7.79134 42.5757 10.9792 43.3419C11.5616 43.4827 11.9198 44.0691 11.7812 44.6539C11.6629 45.1527 11.2175 45.4889 10.7285 45.4889H10.7269Z" fill="#725743"/>
<path d="M23.3677 45.1871C16.7288 45.1871 11.328 39.6829 11.328 32.9169V22.0978C11.328 21.4974 11.8123 21.0095 12.4119 21.0095C13.0115 21.0095 13.4958 21.4958 13.4958 22.0978V32.9169C13.4958 38.482 17.9249 43.0104 23.3677 43.0104C28.8106 43.0104 33.2396 38.482 33.2396 32.9169V22.0978C33.2396 21.4974 33.724 21.0095 34.3235 21.0095C34.9231 21.0095 35.4074 21.4958 35.4074 22.0978V32.9169C35.4074 39.6829 30.0066 45.1871 23.3677 45.1871Z" fill="#725743"/>
<path d="M49.9747 45.4889C49.8906 45.4889 49.8065 45.4795 49.7209 45.4592C44.8978 44.2989 42.5026 41.2607 41.3424 38.9167C40.0966 36.3977 39.986 34.1475 39.9813 34.0522C39.9813 34.0365 39.9813 34.0209 39.9813 34.0052V10.5533C39.9813 9.9528 40.4657 9.46494 41.0652 9.46494C41.6648 9.46494 42.1491 9.95124 42.1491 10.5533V33.974C42.1616 34.1679 42.308 36.0114 43.3218 38.0208C44.7156 40.7853 47.0391 42.5757 50.227 43.3419C50.8094 43.4827 51.1676 44.0691 51.029 44.6539C50.9107 45.1527 50.4653 45.4889 49.9763 45.4889H49.9747Z" fill="#725743"/>
<path d="M62.6748 45.1871C56.0701 45.1871 50.6958 39.6829 50.6958 32.9169V22.0978C50.6958 21.4974 51.1801 21.0095 51.7797 21.0095C52.3793 21.0095 52.8636 21.4958 52.8636 22.0978V32.9169C52.8636 38.482 57.2646 43.0104 62.6748 43.0104C68.085 43.0104 72.486 38.482 72.486 32.9169V26.4495C72.486 25.8491 72.9703 25.3612 73.5699 25.3612C74.1694 25.3612 74.6538 25.8475 74.6538 26.4495V32.9169C74.6538 39.6829 69.2794 45.1871 62.6748 45.1871Z" fill="#725743"/>
<path d="M98.1041 52C98.1041 52 101.427 42.3771 91.0603 35.6158C78.4116 27.3674 66.0215 21.1972 66.3781 8.63461C66.5541 2.39868 68.4478 0 68.4478 0C68.4478 0 64.9002 11.948 80.4315 18.8266C94.5331 25.072 105.263 31.1656 105.263 40.1817C105.263 49.1979 98.1041 52 98.1041 52Z" fill="#725743"/>
<path d="M113.962 45.0651C111.592 45.0651 109.295 44.3802 107.319 43.0839C106.817 42.7555 106.677 42.0816 107.004 41.5781C107.331 41.0746 108.003 40.9339 108.504 41.2622C110.127 42.3271 112.014 42.89 113.962 42.89C119.472 42.89 123.954 38.3898 123.954 32.8575C123.954 27.3252 119.472 22.825 113.962 22.825C109.937 22.825 106.322 25.2299 104.755 28.953C104.522 29.5065 103.886 29.7645 103.335 29.5316C102.784 29.297 102.527 28.659 102.759 28.1055C104.667 23.5755 109.065 20.6483 113.962 20.6483C120.667 20.6483 126.122 26.1259 126.122 32.8575C126.122 39.5891 120.667 45.0667 113.962 45.0667V45.0651Z" fill="#725743"/>
<path d="M140.147 45.2465C133.543 45.2465 128.168 39.7424 128.168 32.9764V22.1573C128.168 21.5568 128.653 21.069 129.252 21.069C129.852 21.069 130.336 21.5553 130.336 22.1573V32.9764C130.336 38.5415 134.737 43.0699 140.147 43.0699C145.557 43.0699 149.959 38.5415 149.959 32.9764V22.3387C149.959 21.7382 150.443 21.2504 151.042 21.2504C151.642 21.2504 152.126 21.7367 152.126 22.3387V32.9764C152.126 39.7424 146.752 45.2465 140.147 45.2465Z" fill="#725743"/>
<path d="M178.484 22.2401C178.414 22.789 177.923 23.1862 177.372 23.1862H169.005C168.195 23.1862 167.538 23.846 167.538 24.6591V43.5687C167.538 44.1644 167.081 44.6836 166.49 44.7023C165.876 44.7211 165.371 44.2285 165.371 43.6156V24.6591C165.371 23.846 164.714 23.1862 163.904 23.1862H155.658C155.107 23.1862 154.616 22.789 154.546 22.2401C154.462 21.5756 154.976 21.0095 155.621 21.0095H177.411C178.056 21.0095 178.57 21.5771 178.486 22.2401H178.484Z" fill="#725743"/>
<path d="M188.063 44.7023C181.591 44.7023 176.326 39.4155 176.326 32.9169C176.326 26.4183 181.591 21.1315 188.063 21.1315C194.536 21.1315 199.801 26.4183 199.801 32.9169C199.801 39.4155 194.536 44.7023 188.063 44.7023ZM188.063 23.3066C182.785 23.3066 178.492 27.6176 178.492 32.9169C178.492 38.2162 182.785 42.5273 188.063 42.5273C193.341 42.5273 197.635 38.2162 197.635 32.9169C197.635 27.6176 193.341 23.3066 188.063 23.3066Z" fill="#725743"/>
<path d="M206.002 28.2024C203.945 28.2024 202.269 26.5215 202.269 24.4543C202.269 22.3871 203.943 20.7062 206.002 20.7062C208.061 20.7062 209.735 22.3871 209.735 24.4543C209.735 26.5215 208.061 28.2024 206.002 28.2024ZM206.002 21.3129C204.277 21.3129 202.872 22.7233 202.872 24.4559C202.872 26.1884 204.277 27.5989 206.002 27.5989C207.728 27.5989 209.132 26.1884 209.132 24.4559C209.132 22.7233 207.728 21.3129 206.002 21.3129Z" fill="#725743"/>
<path d="M204.722 22.6826H206.37C206.641 22.6826 206.865 22.7233 207.041 22.8046C207.376 22.9594 207.542 23.2471 207.542 23.6646C207.542 23.882 207.497 24.0618 207.409 24.1994C207.318 24.3386 207.194 24.4496 207.032 24.534C207.173 24.5919 207.279 24.6685 207.351 24.7623C207.423 24.8562 207.463 25.0094 207.471 25.2205L207.488 25.7084C207.493 25.8475 207.505 25.9507 207.522 26.018C207.552 26.1337 207.605 26.2072 207.679 26.2416V26.3229H207.077C207.06 26.2916 207.047 26.251 207.038 26.2009C207.029 26.1509 207.019 26.0555 207.013 25.9132L206.983 25.3065C206.972 25.0688 206.887 24.9093 206.726 24.828C206.635 24.7827 206.493 24.7608 206.297 24.7608H205.21V26.3229H204.719V22.6826H204.722ZM206.317 24.3511C206.541 24.3511 206.719 24.3042 206.848 24.2119C206.979 24.1197 207.044 23.9524 207.044 23.7115C207.044 23.452 206.952 23.2753 206.77 23.1815C206.672 23.1314 206.543 23.1064 206.379 23.1064H205.213V24.3511H206.317Z" fill="#725743"/>
</g>
<defs>
<clipPath id="clip0_529_230">
<rect width="209" height="52" fill="white" transform="translate(0.733521)"/>
</clipPath>
</defs>
</svg>
