<svg width="51" height="52" viewBox="0 0 51 52" fill="none" xmlns="http://www.w3.org/2000/svg">
<g clip-path="url(#clip0_511_486)">
<path d="M0.404063 24.9565C0.936644 22.5704 2.43471 20.8537 4.12644 19.2387C5.43083 17.9933 6.64694 16.6577 7.9371 15.3978C8.15925 15.1796 8.54373 15.0486 8.86271 15.0341C9.80826 14.9875 10.7623 15.0457 11.7079 15.0137C13.3768 14.9555 14.7439 15.5811 15.9059 16.7741C18.2669 19.1951 20.6393 21.6073 23.0117 24.0224C24.6778 25.7188 26.7312 25.7218 28.4002 24.0224C30.7726 21.6102 33.1479 19.2009 35.5032 16.7741C36.6452 15.5957 38.0094 15.1621 39.6186 15.0021C41.6948 14.7955 43.2099 15.4211 44.52 17.068C45.5681 18.3862 46.8611 19.5064 48.0459 20.714C51.1132 23.8304 51.2044 28.553 48.2082 31.7538C46.4538 33.6277 44.6283 35.4288 42.8198 37.2475C42.6432 37.425 42.3584 37.5792 42.1163 37.5879C41.1394 37.6199 40.1626 37.6228 39.1857 37.5792C37.7901 37.5181 36.6025 36.9623 35.6143 35.9439C33.2732 33.5404 30.9207 31.1485 28.5682 28.7567C26.7369 26.8944 24.6721 26.8915 22.8551 28.745C20.5453 31.0991 18.227 33.4444 15.9315 35.8129C14.7496 37.035 13.3626 37.6694 11.6623 37.6054C10.5487 37.5646 9.30985 37.8963 8.35576 37.4948C7.39882 37.0903 6.72954 35.9846 5.93494 35.1844C5.35963 34.6025 4.80712 33.9972 4.21473 33.4385C2.50021 31.8236 0.94234 30.1097 0.401215 27.6917V24.9594L0.404063 24.9565Z" fill="#725743"/>
<path d="M24.0313 51.779C21.6247 51.2203 19.9671 49.5617 18.3238 47.8333C16.0112 45.4007 13.636 43.0292 11.2807 40.6403C11.0671 40.425 10.8079 40.2562 10.5715 40.0641L10.6883 39.8808C11.5057 39.8255 12.3287 39.8139 13.1404 39.7033C14.7439 39.4822 16.091 38.7256 17.233 37.5588C19.5969 35.1379 21.9693 32.7227 24.3417 30.3105C25.3727 29.2601 26.0107 29.263 27.036 30.3105C29.0723 32.3823 31.1542 34.4104 33.125 36.5462C35.0332 38.6151 37.1806 40.0176 40.2252 39.7703C40.0401 40.0263 39.9546 40.1864 39.835 40.3086C36.856 43.3522 33.8627 46.3813 30.8979 49.4366C29.7216 50.6471 28.2663 51.2901 26.717 51.7819H24.037L24.0313 51.779Z" fill="#725743"/>
<path d="M40.1455 12.7732C39.4961 12.8256 38.861 12.8401 38.2344 12.9332C36.6367 13.1747 35.2867 13.9138 34.1447 15.0836C31.7837 17.5074 29.4112 19.9167 27.0417 22.3289C26.0249 23.3619 25.3784 23.3561 24.3503 22.3115C22.1174 20.0389 19.8533 17.8013 17.6717 15.4793C15.9201 13.617 13.8525 12.6801 11.3234 12.7965C11.1839 12.8023 11.0443 12.7965 10.9047 12.7906C10.8535 12.7906 10.8022 12.7644 10.6342 12.7208C10.8079 12.5055 10.9389 12.3134 11.0956 12.1534C14.0347 9.15339 16.9625 6.14175 19.9188 3.15921C22.9861 0.0631835 27.5486 -0.0444791 30.6729 3.03118C33.8826 6.19121 36.9642 9.49092 40.1426 12.7732H40.1455Z" fill="#725743"/>
</g>
<defs>
<clipPath id="clip0_511_486">
<rect width="50" height="51" fill="white" transform="translate(0.404053 0.778992)"/>
</clipPath>
</defs>
</svg>
