<svg width="36" height="36" viewBox="0 0 36 36" fill="none" xmlns="http://www.w3.org/2000/svg">
<path fill-rule="evenodd" clip-rule="evenodd" d="M25.3087 25.1996C29.1471 21.3613 29.1471 15.1381 25.3087 11.2998C21.4704 7.46144 15.2472 7.46144 11.4089 11.2998C7.57055 15.1381 7.57055 21.3613 11.4089 25.1996C15.2472 29.038 21.4704 29.038 25.3087 25.1996ZM27.0462 26.9371C31.8441 22.1392 31.8441 14.3602 27.0462 9.56229C22.2483 4.76437 14.4693 4.76437 9.67141 9.56229C4.87349 14.3602 4.87349 22.1392 9.67141 26.9371C14.4693 31.735 22.2483 31.735 27.0462 26.9371Z" fill="#725743"/>
<path fill-rule="evenodd" clip-rule="evenodd" d="M33.6158 32.7128C33.136 33.1926 32.3581 33.1926 31.8783 32.7128L26.2492 27.0836C25.7694 26.6038 25.7694 25.8259 26.2492 25.3462C26.729 24.8664 27.5069 24.8664 27.9867 25.3462L33.6158 30.9753C34.0956 31.4551 34.0956 32.233 33.6158 32.7128Z" fill="#725743"/>
</svg>
