<svg width="123" height="23" viewBox="0 0 123 23" fill="none" xmlns="http://www.w3.org/2000/svg">
<path d="M4.75939 21.4506C5.13459 19.2571 5.47508 17.0982 5.88931 14.9524C6.00425 14.3591 5.85244 13.9975 5.44038 13.6077C3.9266 12.1807 2.43017 10.7321 0.948928 9.27049C0.74073 9.06478 0.647474 8.74431 0.5 8.4758C0.797117 8.32856 1.07905 8.0947 1.39135 8.0449C3.42129 7.73092 5.45556 7.44293 7.492 7.17659C8.11226 7.09647 8.49179 6.84096 8.76939 6.25198C9.64339 4.39844 10.5759 2.57088 11.5128 0.747652C11.6451 0.48781 11.9227 0.141353 12.1439 0.134857C12.3565 0.128361 12.6558 0.470487 12.7881 0.725999C13.738 2.57521 14.6749 4.42875 15.5684 6.30612C15.8351 6.86694 16.2038 7.10297 16.7959 7.18092C18.8323 7.44726 20.8666 7.73525 22.8965 8.04706C23.2132 8.09687 23.5059 8.31557 23.8074 8.45631C23.6512 8.74647 23.5536 9.09509 23.3303 9.31812C21.8317 10.8014 20.2875 12.2392 18.8063 13.7376C18.5569 13.991 18.3921 14.4955 18.4441 14.8463C18.7542 16.9553 19.1489 19.0492 19.4829 21.154C19.5263 21.4311 19.4612 21.8209 19.2856 22.0006C19.1728 22.1154 18.7304 22.0049 18.4918 21.8858C16.6137 20.9309 14.7421 19.9652 12.8856 18.9669C12.3803 18.6941 11.9704 18.6768 11.4543 18.9561C9.57615 19.9673 7.67634 20.9374 5.77653 21.9118C5.09555 22.2604 4.72036 22.0656 4.75723 21.4528L4.75939 21.4506Z" fill="#725743"/>
<path d="M29.4395 21.4634C29.7648 19.5752 30.012 17.6697 30.4436 15.8075C30.7104 14.6512 30.5152 13.8609 29.587 13.0705C28.1903 11.8817 26.9151 10.5479 25.6117 9.25299C25.4078 9.04944 25.3297 8.72248 25.1931 8.45181C25.4707 8.31539 25.7353 8.10102 26.0281 8.05771C28.058 7.74807 30.0901 7.45358 32.1287 7.1959C32.7815 7.11362 33.1784 6.85161 33.469 6.23232C34.317 4.42641 35.2257 2.64866 36.1452 0.875231C36.3014 0.572081 36.6202 0.35338 36.8631 0.0957031C37.0995 0.364207 37.4053 0.598065 37.5636 0.907711C38.4896 2.70712 39.3983 4.51519 40.2723 6.34059C40.5261 6.86893 40.8796 7.10062 41.4369 7.17425C43.4734 7.44492 45.5077 7.72858 47.5376 8.04689C47.8737 8.09885 48.1817 8.34137 48.5027 8.49511C48.3357 8.78094 48.2207 9.1209 47.993 9.3461C46.5118 10.8077 45.0154 12.2542 43.5037 13.6855C43.1351 14.0341 43.0006 14.3632 43.1004 14.8916C43.4972 16.9855 43.8421 19.088 44.1782 21.1928C44.2194 21.4504 44.1782 21.851 44.0156 21.9744C43.8551 22.0957 43.4517 22.0242 43.2218 21.9073C41.3914 20.9805 39.561 20.0473 37.7631 19.0599C37.1255 18.7113 36.6202 18.6831 35.9652 19.0447C34.1457 20.0516 32.287 20.9849 30.4371 21.9355C29.7995 22.2624 29.433 22.0762 29.4438 21.4699L29.4395 21.4634Z" fill="#725743"/>
<path d="M54.1199 21.4634C54.4452 19.5752 54.6925 17.6697 55.124 15.8075C55.3908 14.6512 55.1956 13.8608 54.2674 13.0704C52.8707 11.8817 51.5955 10.5478 50.2921 9.25292C50.0882 9.04938 50.0102 8.72241 49.8735 8.45174C50.1511 8.31532 50.4157 8.10096 50.7085 8.05548C52.7384 7.74584 54.7705 7.45135 56.8092 7.19367C57.4619 7.11139 57.8588 6.84938 58.1494 6.23009C58.9974 4.42418 59.9061 2.64643 60.8235 0.873002C60.9796 0.569852 61.2963 0.351151 61.5392 0.0913086C61.7756 0.359813 62.0813 0.593671 62.2397 0.901151C63.1657 2.70056 64.0744 4.50863 64.9484 6.33403C65.2022 6.86237 65.5557 7.09407 66.113 7.16769C68.1495 7.43836 70.1837 7.72202 72.2137 8.04032C72.5498 8.09229 72.8578 8.33265 73.1788 8.48639C73.0118 8.77221 72.8968 9.11218 72.6691 9.33737C71.1879 10.799 69.6914 12.2454 68.1798 13.6767C67.8111 14.0254 67.6745 14.3523 67.7764 14.8828C68.1733 16.9767 68.5181 19.0793 68.8565 21.184C68.8977 21.4417 68.8565 21.8423 68.6938 21.9657C68.5333 22.087 68.1299 22.0177 67.9001 21.9008C66.0696 20.974 64.2392 20.0407 62.4413 19.0533C61.8059 18.7047 61.2984 18.6744 60.6435 19.036C58.8239 20.0429 56.9653 20.9762 55.1154 21.9267C54.4778 22.2537 54.1112 22.0675 54.1221 21.4612L54.1199 21.4634Z" fill="#725743"/>
<path d="M78.7611 21.4764C79.1341 19.298 79.4681 17.137 79.8888 14.9933C80.0124 14.3654 79.8454 13.9886 79.4117 13.5815C77.9152 12.174 76.4383 10.7449 74.9788 9.30059C74.7576 9.08189 74.6687 8.7311 74.5168 8.44094C74.7966 8.30886 75.0634 8.09882 75.3561 8.05334C77.3601 7.74586 79.364 7.45138 81.3766 7.20236C82.0922 7.11358 82.5173 6.82342 82.8296 6.14783C83.6819 4.31378 84.608 2.5122 85.534 0.714958C85.6641 0.461611 85.9439 0.182281 86.1976 0.134643C86.3538 0.104328 86.6552 0.457281 86.7789 0.69547C87.7244 2.54468 88.67 4.39606 89.5549 6.27559C89.8368 6.87323 90.2337 7.10492 90.8452 7.18504C92.8557 7.44921 94.8617 7.73071 96.8657 8.04468C97.1996 8.09665 97.5033 8.3435 97.8221 8.50157C97.6507 8.7874 97.5315 9.12303 97.3016 9.35039C95.8203 10.812 94.3239 12.2585 92.8123 13.6898C92.4393 14.0427 92.3222 14.3762 92.4197 14.898C92.8145 16.9919 93.1615 19.0945 93.4976 21.1992C93.5388 21.4547 93.4889 21.8596 93.3241 21.9766C93.1571 22.0957 92.7602 22.0177 92.5282 21.8986C90.6262 20.9329 88.7329 19.9498 86.8504 18.9429C86.3711 18.6874 85.9764 18.6766 85.4906 18.9386C83.5865 19.9606 81.665 20.948 79.7435 21.9354C79.1102 22.2602 78.7459 22.0654 78.7611 21.4785V21.4764Z" fill="#725743"/>
<path d="M103.443 21.4569C103.769 19.5687 104.018 17.6653 104.448 15.801C104.712 14.6447 104.513 13.8543 103.584 13.0661C102.205 11.8968 100.949 10.5824 99.6655 9.30489C99.4443 9.08403 99.351 8.7354 99.1992 8.44525C99.505 8.30883 99.7978 8.09446 100.117 8.04465C102.147 7.73284 104.181 7.44269 106.217 7.17851C106.811 7.10056 107.174 6.85371 107.438 6.29721C108.308 4.47182 109.221 2.66375 110.149 0.866505C110.305 0.565521 110.626 0.348986 110.869 0.0913086C111.093 0.338159 111.381 0.550364 111.528 0.836191C112.455 2.6356 113.374 4.43934 114.235 6.26906C114.515 6.86454 114.91 7.10273 115.521 7.18284C117.532 7.44702 119.538 7.72851 121.542 8.04249C121.878 8.09446 122.181 8.33914 122.5 8.49505C122.331 8.78088 122.214 9.11867 121.984 9.34387C120.503 10.8055 119.006 12.2519 117.495 13.6832C117.124 14.034 116.998 14.3653 117.098 14.8915C117.495 16.9854 117.839 19.088 118.176 21.1927C118.217 21.4482 118.169 21.851 118.006 21.9722C117.842 22.0913 117.443 22.0177 117.211 21.8986C115.33 20.948 113.456 19.9844 111.604 18.984C111.071 18.696 110.648 18.6787 110.104 18.9754C108.228 19.9931 106.326 20.9588 104.428 21.9332C103.79 22.2602 103.426 22.0697 103.443 21.4569Z" fill="#725743"/>
</svg>
