<svg width="16" height="17" viewBox="0 0 16 17" fill="none" xmlns="http://www.w3.org/2000/svg">
<path fill-rule="evenodd" clip-rule="evenodd" d="M0 8.55183C0 4.29086 3.60382 0.876465 8 0.876465C12.3962 0.876465 16 4.29086 16 8.55183C16 12.8128 12.3962 16.2272 8 16.2272C6.97693 16.2272 5.99832 16.0418 5.09769 15.7057L2.70752 16.826C2.51932 16.9143 2.29702 16.8851 2.13793 16.7513C1.97884 16.6176 1.91196 16.4036 1.96656 16.203L2.52754 14.1425C0.978864 12.7472 0 10.7633 0 8.55183ZM9.08418 10.0895L12.6082 7.15285L11.9253 6.33341L9.04935 8.73007L6.94112 7.1489L2.8901 10.0425L3.51009 10.9105L6.92575 8.4707L9.08418 10.0895Z" fill="white"/>
</svg>
