<svg width="16" height="17" viewBox="0 0 16 17" fill="none" xmlns="http://www.w3.org/2000/svg">
<path d="M5.33333 5.96205C5.6543 5.75793 6.08218 5.94695 6.14514 6.32472L6.29388 7.21717C6.32838 7.42418 6.23827 7.63219 6.06364 7.74861L5.52924 8.10488C5.40175 7.67318 5.33333 7.21615 5.33333 6.74313V5.96205Z" fill="white"/>
<path d="M10.1333 11.5431C9.66032 11.5431 9.20329 11.4747 8.7716 11.3472L9.12786 10.8128C9.24428 10.6382 9.45229 10.5481 9.65931 10.5826L10.5518 10.7313C10.9295 10.7943 11.1185 11.2222 10.9144 11.5431H10.1333Z" fill="white"/>
<path fill-rule="evenodd" clip-rule="evenodd" d="M1.47091e-05 8.87646C1.47091e-05 4.45819 3.58174 0.876465 8.00002 0.876465C12.4183 0.876465 16 4.45819 16 8.87646C16 13.2947 12.4183 16.8765 8.00002 16.8765C6.31904 16.8765 4.75794 16.3575 3.46994 15.4711L0.771862 16.8202C0.566535 16.9228 0.31855 16.8826 0.156224 16.7203C-0.00610107 16.5579 -0.0463435 16.3099 0.0563202 16.1046L1.40536 13.4065C0.519023 12.1185 1.47091e-05 10.5574 1.47091e-05 8.87646ZM4.51113 5.22806L4.73154 5.08112C5.6976 4.43708 7.00642 5.00411 7.19729 6.14936L7.34603 7.04181C7.44954 7.66286 7.1792 8.28688 6.65532 8.63613L5.95321 9.1042C6.38285 9.86322 7.01325 10.4936 7.77227 10.9233L8.24035 10.2211C8.58959 9.69727 9.21361 9.42693 9.83466 9.53043L10.7271 9.67918C11.8724 9.87005 12.4394 11.1789 11.7954 12.1449L11.6481 12.3657C11.5531 12.5126 11.3879 12.6098 11.2 12.6098H10.1333C6.89326 12.6098 4.26667 9.9832 4.26667 6.74313V5.67647C4.26667 5.48837 4.36404 5.32301 4.51113 5.22806Z" fill="white"/>
</svg>
